<?xml version="1.0" standalone="no"?>
<!DOCTYPE svg PUBLIC "-//W3C//DTD SVG 1.1//EN" "http://www.w3.org/Graphics/SVG/1.1/DTD/svg11.dtd" >
<svg xmlns="http://www.w3.org/2000/svg">
<metadata>Generated by IcoMoon</metadata>
<defs>
<font id="icomoon" horiz-adv-x="1024">
<font-face units-per-em="1024" ascent="960" descent="-64" />
<missing-glyph horiz-adv-x="1024" />
<glyph unicode="&#x20;" horiz-adv-x="512" d="" />
<glyph unicode="&#xe923;" glyph-name="ic-asistenta-on" d="M819.2-36.693h-628.053c-30.162 0-54.613 24.451-54.613 54.613v791.893c0 30.162 24.451 54.613 54.613 54.613h122.88v40.96c0 15.081 12.226 27.307 27.307 27.307s27.307-12.226 27.307-27.307v-40.96h109.227v40.96c0 15.081 12.226 27.307 27.307 27.307s27.307-12.226 27.307-27.307v-40.96h109.227v40.96c0 15.081 12.226 27.307 27.307 27.307s27.307-12.226 27.307-27.307v-40.96h122.88c30.162 0 54.613-24.451 54.613-54.613v-791.893c0-30.162-24.451-54.613-54.613-54.613zM628.053 550.4h-314.027v-54.613h314.027v54.613zM696.32 386.56h-382.293v-54.613h382.293v54.613zM696.32 222.72h-382.293v-54.613h382.293v54.613z" />
<glyph unicode="&#xe924;" glyph-name="ic-back" d="M941.937 384.778h-692.552l270.991-272.056-74.015-74.322-384.922 386.437 12.063 12.104-12.063 12.104 386.56 388.076 74.24-74.629-270.991-272.179h690.688v-105.554z" />
<glyph unicode="&#xe925;" glyph-name="ic-cautare" d="M937.387 109.261l-181.453 181.504c46.183 63.219 73.893 142.483 73.893 228.219 0 215.046-174.33 389.376-389.376 389.376s-389.376-174.33-389.376-389.376c0-215.046 174.33-389.376 389.376-389.376 85.87 0 165.249 27.797 229.627 74.883l180.354-182.202c11.127-11.125 26.499-18.006 43.477-18.006 33.961 0 61.492 27.531 61.492 61.492 0 16.983-6.884 32.358-18.015 43.486zM226.031 304.64c-54.93 54.89-88.908 130.741-88.908 214.528 0 167.494 135.781 303.275 303.275 303.275s303.275-135.781 303.275-303.275c0-167.443-135.699-303.193-303.123-303.275-83.757 0.019-159.583 33.925-214.524 88.752z" />
<glyph unicode="&#xe926;" glyph-name="ic-contact-off" d="M860.16 140.8h-709.973c-30.162 0-54.613 24.451-54.613 54.613v518.827c0 30.162 24.451 54.613 54.613 54.613h709.973c30.162 0 54.613-24.451 54.613-54.613v-518.827c0-30.162-24.451-54.613-54.613-54.613zM150.187 195.413h709.973v480.474l-343.764-343.75-2.185 2.198-9.871-9.871-354.154 354.14v-483.191zM506.757 399.271l314.982 314.969h-629.951z" />
<glyph unicode="&#xe927;" glyph-name="ic-contact-on" d="M506.757 399.271l-368.258 368.217c3.499 0.834 7.526 1.329 11.663 1.365h709.998c5.054-0.071 9.904-0.824 14.5-2.171zM514.198 334.336l2.185-2.198 396.302 396.274c1.261-4.23 2.019-9.099 2.089-14.134v-518.865c0-30.162-24.451-54.613-54.613-54.613h-709.973c-30.162 0-54.613 24.451-54.613 54.613v518.827c0.082 5.83 1.075 11.401 2.843 16.614l405.911-406.39z" />
<glyph unicode="&#xe928;" glyph-name="ic-creion" d="M744.264 700.662c-14.131 14.131-139.653 136.458-195.092 81.039l-336.855-336.855c-0.287-0.287-0.451-0.594-0.737-0.901-0.8-0.876-1.573-1.824-2.29-2.814-0.433-0.626-0.822-1.138-1.171-1.691-0.589-0.959-1.191-2.102-1.722-3.283-0.285-0.69-0.551-1.161-0.756-1.694-0.468-1.252-0.88-2.751-1.162-4.296-0.026-0.455-0.189-0.742-0.23-1.029v-0.143l-40.284-284.099c-0.214-1.129-0.336-2.429-0.336-3.756 0-11.684 9.472-21.156 21.156-21.156 1.328 0 2.627 0.122 3.887 0.356l283.866 40.244c2.001 0.306 3.787 0.777 5.493 1.413 0.262 0.102 0.671 0.348 1.122 0.512 1.477 0.622 2.715 1.259 3.899 1.978 0.402 0.254 0.914 0.623 1.426 0.991 1.129 0.804 2.117 1.611 3.051 2.476 0.247 0.228 0.595 0.433 0.861 0.699l336.957 336.937c55.296 55.419-66.949 180.941-81.080 195.072zM258.519 214.938c-6.472 6.199-15.269 10.014-24.958 10.014-3.511 0-6.904-0.501-10.114-1.436l23.684 165.317c41.924-24.707 78.183-52.453 110.745-83.993 10.087-10.092 19.303-20.455 27.782-30.798 1.523-4.786 4.678-8.685 8.797-11.132 13.404-17.199 26.326-36.503 37.879-56.691l-165.317-26.057c0.889 2.982 1.401 6.408 1.401 9.954 0 9.625-3.77 18.369-9.915 24.837zM654.664 562.196l-240.804-240.804c-6.144 6.84-12.411 13.681-19.169 20.48-9.851 9.851-20.091 19.087-30.331 27.791l241.439 241.398zM735.908 480.952l-255.201-255.181c-12.656 23.067-25.222 42.591-38.972 61.188l245.308 242.858zM327.987 398.008c-16.684 12.189-36.072 24.853-56.099 36.543l252.707 257.775 48.845-48.886zM707.42 663.818c61.686-61.686 84.255-112.947 83.19-128.143l-17.879-17.879-211.333 211.354 17.879 17.879c15.217 1.044 66.458-21.524 128.143-83.21z" />
<glyph unicode="&#xe929;" glyph-name="ic-detalii" d="M512 891.733c-245.067 0-443.733-198.666-443.733-443.733s198.666-443.733 443.733-443.733c245.067 0 443.733 198.666 443.733 443.733s-198.666 443.733-443.733 443.733zM512 800.711c194.797 0 352.711-157.914 352.711-352.711s-157.914-352.711-352.711-352.711c-194.797 0-352.711 157.914-352.711 352.711s157.914 352.711 352.711 352.711zM295.822 504.889c37.703 0 68.267-30.564 68.267-68.267s-30.564-68.267-68.267-68.267c-37.703 0-68.267 30.564-68.267 68.267s30.564 68.267 68.267 68.267zM500.622 504.889c37.703 0 68.267-30.564 68.267-68.267s-30.564-68.267-68.267-68.267c-37.703 0-68.267 30.564-68.267 68.267s30.564 68.267 68.267 68.267zM728.178 504.889c37.703 0 68.267-30.564 68.267-68.267s-30.564-68.267-68.267-68.267c-37.703 0-68.267 30.564-68.267 68.267s30.564 68.267 68.267 68.267z" />
<glyph unicode="&#xe92a;" glyph-name="ic-fax" d="M879.388 179.803h-92.183v-122.311c0-0.007 0-0.015 0-0.023 0-16.878-13.682-30.561-30.561-30.561-0.008 0-0.016 0-0.024 0h-489.243c-0.007 0-0.015 0-0.023 0-16.878 0-30.561 13.682-30.561 30.561 0 0.008 0 0.016 0 0.024v122.31h-92.137c-42.158 0.039-76.326 34.191-76.39 76.339v360.022c0.052 42.168 34.222 76.339 76.385 76.39h92.165v145.772c0 0.020 0 0.044 0 0.068 0 16.883 13.68 30.571 30.56 30.583h336.328c8.463-0.039 16.119-3.465 21.688-8.99l152.847-130.137c5.571-5.549 9.038-13.206 9.102-21.674v-15.622h92.183c42.095-0.142 76.17-34.281 76.208-76.387v-359.997c-0.039-42.153-34.194-76.316-76.34-76.368zM297.961 88.053h428.078v214.062h-428.078v-214.062zM726.039 677.604h-122.311c-0.007 0-0.015 0-0.023 0-16.878 0-30.561 13.682-30.561 30.561 0 0.008 0 0.016 0 0.024v99.554h-275.183v-268.106h428.078v137.967zM673.701 738.77l-39.367 33.519v-33.519h39.367zM894.589 616.164c0 0 0 0 0 0 0 8.4-6.803 15.21-15.199 15.223h-92.184v-91.728h30.583c16.891 0 30.583-13.693 30.583-30.583s-13.693-30.583-30.583-30.583h-611.556c-16.891 0-30.583 13.693-30.583 30.583s13.693 30.583 30.583 30.583h30.583v91.728h-92.16c-8.408 0-15.223-6.816-15.223-15.223v-359.993c0.013-8.398 6.824-15.201 15.223-15.201h92.16v61.144h-30.583c-16.891 0-30.583 13.693-30.583 30.583s13.693 30.583 30.583 30.583h611.556c16.891 0 30.583-13.693 30.583-30.583s-13.693-30.583-30.583-30.583h-30.583v-61.19h92.183c8.39 0.013 15.188 6.811 15.201 15.199v360.040zM634.311 165.831h-244.622c-16.891 0-30.583 13.693-30.583 30.583s13.693 30.583 30.583 30.583h244.622c16.891 0 30.583-13.693 30.583-30.583s-13.693-30.583-30.583-30.583z" />
<glyph unicode="&#xe92b;" glyph-name="ic-filtrare" d="M880.561 534.252v-479.374c0-22.134-17.943-40.078-40.078-40.078s-40.078 17.943-40.078 40.078v479.374c-56.175 17.739-96.19 69.382-96.19 130.371s40.015 112.632 95.224 130.107l0.966 46.391c0 22.134 17.943 40.078 40.078 40.078s40.078-17.943 40.078-40.078v-46.127c56.175-17.739 96.19-69.382 96.19-130.371s-40.015-112.632-95.224-130.107zM559.955 341.693v-286.815c0-22.134-17.943-40.078-40.078-40.078s-40.078 17.943-40.078 40.078v286.815c-56.175 17.739-96.19 69.382-96.19 130.371s40.015 112.632 95.224 130.107l0.966 238.95c0 22.134 17.943 40.078 40.078 40.078s40.078-17.943 40.078-40.078v-238.734c56.135-17.763 96.113-69.386 96.113-130.347s-39.978-112.584-95.147-130.083zM239.348 101.022v-46.127c0-22.134-17.943-40.078-40.078-40.078s-40.078 17.943-40.078 40.078v46.127c-56.175 17.739-96.19 69.382-96.19 130.371s40.015 112.632 95.224 130.107l0.966 479.622c0 22.134 17.943 40.078 40.078 40.078s40.078-17.943 40.078-40.078v-479.374c56.162-17.747 96.164-69.383 96.164-130.363s-40.003-112.616-95.198-130.099z" />
<glyph unicode="&#xe92c;" glyph-name="ic-harta" d="M500.349 156.729c-17.374 0.013-32.349 10.271-39.21 25.060-29.693 65.12-176.831 393.938-176.831 493.744-0.007 0.659-0.011 1.438-0.011 2.217 0 119.316 96.725 216.041 216.041 216.041s216.041-96.725 216.041-216.041c0-0.78-0.004-1.558-0.012-2.336 0.001-99.755-147.159-428.505-176.719-493.358-6.912-15.058-21.859-25.327-39.206-25.327-0.033 0-0.066 0-0.098 0zM500.349 805.262c-71.635 0-129.707-58.072-129.707-129.707 0-51.154 68.836-227.556 129.707-368.64 60.826 141.244 129.707 317.554 129.707 368.64 0 71.635-58.072 129.707-129.707 129.707zM500.349 740.409c0.014 0 0.030 0 0.046 0 35.818 0 64.853-29.036 64.853-64.853s-29.036-64.853-64.853-64.853c-35.818 0-64.853 29.036-64.853 64.853 0 0 0 0 0 0 0.026 35.777 29.029 64.772 64.807 64.785zM823.751 27.022h-646.736c-47.723 0.044-86.393 38.742-86.393 86.471 0 12.337 2.584 24.070 7.239 34.689l92.33 215.622c13.503 31.033 43.898 52.338 79.269 52.338 0.052 0 0.104 0 0.156 0h35.604v-86.471h-35.612l-92.592-216.178h646.736l-92.592 216.178h-37.114v86.471h37.023c0.039 0 0.086 0 0.133 0 35.375 0 65.775-21.304 79.068-51.782l92.763-216.733c4.438-10.063 7.022-21.797 7.022-34.133 0-47.697-38.618-86.375-86.293-86.471z" />
<glyph unicode="&#xe92d;" glyph-name="ic-info-off" d="M696.32 495.787l109.227-109.227v-218.453l95.573-204.8h-218.453v163.84l-122.88 122.88 54.613 54.613 81.92-68.267v259.413zM126.525 790.412c75.545 87.346 186.529 142.282 310.344 142.282 123.18 0 233.66-54.374 308.747-140.431 2.272-3.299-49.296-50.717-49.296-50.717-58.164 75.128-148.372 123.028-249.768 123.028-3.392 0-6.771-0.054-10.137-0.16-103.728-0.337-196.778-47.859-258.47-122.307zM231.97 704.273c50.598 56.496 123.769 91.882 205.204 91.882 81.010 0 153.841-35.017 204.183-90.741 1.429-2.097-54.263-45.787-54.263-45.787-35.758 44.264-68.403 65.14-149.9 65.14-69.359 0-109.076-17.067-150.473-65.154zM587.093 127.147v-68.267h-300.373v477.867h300.373v-204.8h54.613v204.8c0 30.162-24.451 54.613-54.613 54.613h-300.373c-30.162 0-54.613-24.451-54.613-54.613v-477.867c0-30.162 24.451-54.613 54.613-54.613h300.373c30.162 0 54.613 24.451 54.613 54.613v68.267h-54.613zM436.907 413.867c22.622 0 40.96-18.338 40.96-40.96s-18.338-40.96-40.96-40.96c-22.622 0-40.96 18.338-40.96 40.96s18.338 40.96 40.96 40.96zM436.907 250.027c22.622 0 40.96-18.338 40.96-40.96s-18.338-40.96-40.96-40.96c-22.622 0-40.96 18.338-40.96 40.96s18.338 40.96 40.96 40.96z" />
<glyph unicode="&#xe92e;" glyph-name="ic-info-on" d="M696.32 495.787l109.227-109.227v-218.453l95.573-204.8h-218.453v163.84l-122.88 122.88 54.613 54.613 81.92-68.267v259.413zM126.525 790.412c75.545 87.346 186.529 142.282 310.344 142.282 123.18 0 233.66-54.374 308.747-140.431 2.272-3.299-49.296-50.717-49.296-50.717-58.164 75.128-148.372 123.028-249.768 123.028-3.392 0-6.771-0.054-10.137-0.16-103.728-0.337-196.778-47.859-258.47-122.307zM231.97 704.273c50.598 56.496 123.769 91.882 205.204 91.882 81.010 0 153.841-35.017 204.183-90.741 1.429-2.097-54.263-45.787-54.263-45.787-35.758 44.264-68.403 65.14-149.9 65.14-69.359 0-109.076-17.067-150.473-65.154zM604.583 331.947h37.123v204.8c0 30.162-24.451 54.613-54.613 54.613h-300.373c-30.162 0-54.613-24.451-54.613-54.613v-477.867c0-30.162 24.451-54.613 54.613-54.613h300.373c30.162 0 54.613 24.451 54.613 54.613v68.267h-40.81c-21.163 0-41.192 4.71-41.11 40.96 0.096 60.512 0.573 84.978 0 122.88 0.584 22.793 19.2 41.048 42.080 41.048 0.956 0 1.904-0.032 2.844-0.095zM436.907 413.867c22.622 0 40.96-18.338 40.96-40.96s-18.338-40.96-40.96-40.96c-22.622 0-40.96 18.338-40.96 40.96s18.338 40.96 40.96 40.96zM436.907 250.027c22.622 0 40.96-18.338 40.96-40.96s-18.338-40.96-40.96-40.96c-22.622 0-40.96 18.338-40.96 40.96s18.338 40.96 40.96 40.96z" />
<glyph unicode="&#xe92f;" glyph-name="ic-instrumente-off" d="M819.2-36.693h-314.027c-30.162 0-54.613 24.451-54.613 54.613v860.16c0 30.162 24.451 54.613 54.613 54.613h314.027c30.162 0 54.613-24.451 54.613-54.613v-860.16c0-30.162-24.451-54.613-54.613-54.613zM819.2 850.773c0 15.081-12.226 27.307-27.307 27.307h-259.413c-15.081 0-27.307-12.226-27.307-27.307v-163.84h150.187v-54.613h-150.187v-150.187h150.187v-54.613h-150.187v-150.187h150.187v-54.613h-150.187v-177.493c0-15.081 12.226-27.307 27.307-27.307h259.413c15.081 0 27.307 12.226 27.307 27.307v805.547zM136.533 236.373v532.48c0 30.162 24.451 54.613 54.613 54.613h136.533c30.162 0 54.613-24.451 54.613-54.613v-532.48l-122.88-177.493zM327.68 577.707h-136.533v54.613h136.533v136.533h-136.533v-518.827l68.267-109.227 68.267 109.227v327.68z" />
<glyph unicode="&#xe930;" glyph-name="ic-instrumente-on" d="M505.173 932.693c-30.162 0-54.613-24.451-54.613-54.613v-860.16c0-30.162 24.451-54.613 54.613-54.613h314.027c30.162 0 54.613 24.451 54.613 54.613v860.16c0 30.162-24.451 54.613-54.613 54.613h-314.027zM505.173 482.133h150.187v-54.613h-150.187v54.613zM505.173 277.333h150.187v-54.613h-150.187v54.613zM136.533 768.853v-532.48l122.88-177.493 122.88 177.493v532.48h-245.76zM191.147 632.32h136.533v-54.613h-136.533v54.613zM136.533 768.853c0 30.162 24.451 54.613 54.613 54.613h136.533c30.162 0 54.613-24.451 54.613-54.613zM505.173 686.933h150.187v-54.613h-150.187v54.613z" />
<glyph unicode="&#xe931;" glyph-name="ic-notificare-off" d="M184.525 72.653l-47.872 47.872 702.874 702.942 47.94-47.94zM520.533 680.107c-0.032 0-0.070 0-0.108 0-98.913 0-179.098-80.185-179.098-179.098 0-0.486 0.002-0.972 0.006-1.457v-121.321l-79.65-79.65v201.045c-0.004 0.509-0.006 1.11-0.006 1.713 0 121.548 84.148 223.442 197.366 250.604l1.756 28.43c0 32.99 26.744 59.733 59.733 59.733s59.733-26.744 59.733-59.733v-28.075c35.275-8.744 66.206-23.466 93.256-43.191l-57.791-56.478c-26.928 17.238-59.777 27.477-95.017 27.477-0.064 0-0.127 0-0.191 0zM699.733 238.933v260.693c-0.049 11.428-1.127 22.571-3.147 33.383l64.485 63.163c11.588-28.528 18.313-61.621 18.313-96.285 0-0.092 0-0.184 0-0.276v-220.572l79.65-80.213v-40.107h-535.415l80.213 80.213h295.902zM520.533 38.4c-44.058 0.319-79.65 36.109-79.65 80.211 0 0.001 0 0.001 0 0.002h159.283c0-0.001 0-0.001 0-0.002 0-44.097-35.583-79.882-79.602-80.211z" />
<glyph unicode="&#xe932;" glyph-name="ic-notificare-on" d="M682.667 256v260.693c0 98.969-80.231 179.2-179.2 179.2s-179.2-80.231-179.2-179.2v-260.693h358.4zM762.317 296.107l79.65-80.213v-40.107h-676.983v40.107l79.65 80.213v220.587c-0.004 0.51-0.006 1.113-0.006 1.717 0 121.542 84.14 223.432 197.349 250.6l1.756 28.43c0 32.99 26.744 59.733 59.733 59.733s59.733-26.744 59.733-59.733v-28.075c114.974-27.518 199.122-129.412 199.122-250.959 0-0.602-0.002-1.204-0.006-1.805v-220.494zM503.467 55.467c-44.058 0.319-79.65 36.109-79.65 80.211 0 0.001 0 0.001 0 0.002h159.283c0-0.001 0-0.001 0-0.002 0-44.097-35.583-79.882-79.602-80.211z" />
<glyph unicode="&#xe933;" glyph-name="ic-setari" d="M150.869 338.176l24.542-58.385s-57.105-129.28-52.122-134.263l75.639-74.291c5.12-5.12 134.11 53.999 134.11 53.999l59.494-24.201s52.514-131.072 59.733-131.072h106.752c7.39 0 56.047 131.413 56.047 131.413l59.58 24.183s131.413-56.166 136.448-51.2l75.657 74.223c5.222 5.12-55.023 131.925-55.023 131.925l24.508 58.487s133.632 51.678 133.632 58.761v104.977c0 7.202-133.7 54.921-133.7 54.921l-24.576 58.607s57.173 129.365 52.070 134.349l-75.605 74.103c-5.274 5.12-134.178-53.931-134.178-53.931l-59.477 24.098s-52.531 131.123-59.733 131.123h-106.752c-7.424 0-56.081-131.413-56.081-131.413l-59.375-24.201s-131.618 56.166-136.755 51.2l-75.469-74.24c-5.274-5.12 54.835-131.874 54.835-131.874l-24.508-58.522s-133.495-51.61-133.495-58.573v-104.994c0-7.39 133.803-55.211 133.803-55.211zM503.467 616.363c91.736-1.716 165.444-76.486 165.444-168.472 0-93.060-75.44-168.499-168.499-168.499s-168.499 75.44-168.499 168.499c0 0.038 0 0.077 0 0.115 0.991 93.23 76.803 168.43 170.18 168.43 0.483 0 0.966-0.002 1.448-0.006z" />
<glyph unicode="&#xe934;" glyph-name="ic-tablou-off" d="M505.173-9.387c-256.378 0-464.213 207.835-464.213 464.213s207.835 464.213 464.213 464.213c256.378 0 464.213-207.835 464.213-464.213s-207.835-464.213-464.213-464.213zM505.173 864.427c-226.216 0-409.6-183.384-409.6-409.6s183.384-409.6 409.6-409.6c226.216 0 409.6 183.384 409.6 409.6s-183.384 409.6-409.6 409.6zM832.853 413.867h-54.613c-15.081 0-27.307 12.226-27.307 27.307s12.226 27.307 27.307 27.307h54.613c15.081 0 27.307-12.226 27.307-27.307s-12.226-27.307-27.307-27.307zM589.387 499.104c7.050-12.801 11.244-28.037 11.359-44.243 0-52.819-42.789-95.608-95.573-95.608s-95.573 42.79-95.573 95.573c0 52.784 42.79 95.573 95.573 95.573 16.426-0.114 31.825-4.401 45.224-11.851l179.947 167.882c5.046 5.077 12.034 8.22 19.756 8.22s14.71-3.142 19.755-8.218c5.055-5.089 8.178-12.1 8.178-19.84s-3.123-14.751-8.179-19.84zM505.173 495.787c-22.622 0-40.96-18.338-40.96-40.96s18.338-40.96 40.96-40.96c22.622 0 40.96 18.338 40.96 40.96s-18.338 40.96-40.96 40.96zM505.173 714.24c-15.081 0-27.307 12.226-27.307 27.307v54.613c0 15.081 12.226 27.307 27.307 27.307s27.307-12.226 27.307-27.307v-54.613c0-15.081-12.226-27.307-27.307-27.307zM682.667 263.68v-68.267c0-22.622-18.338-40.96-40.96-40.96h-273.067c-22.622 0-40.96 18.338-40.96 40.96v68.267c0 22.622 18.338 40.96 40.96 40.96h273.067c22.622 0 40.96-18.338 40.96-40.96zM628.053 250.027h-245.76v-40.96h245.76v40.96zM283.443 625.398l-38.612 38.612c-4.944 4.942-8.002 11.77-8.002 19.313 0 15.081 12.226 27.307 27.307 27.307 7.539 0 14.365-3.055 19.306-7.995l38.612-38.625c5.143-4.972 8.336-11.934 8.336-19.641 0-15.081-12.226-27.307-27.307-27.307-7.707 0-14.669 3.193-19.634 8.329zM245.76 441.173c0-15.081-12.226-27.307-27.307-27.307h-54.613c-15.081 0-27.307 12.226-27.307 27.307s12.226 27.307 27.307 27.307h54.613c15.081 0 27.307-12.226 27.307-27.307z" />
<glyph unicode="&#xe935;" glyph-name="ic-tablou-on" d="M518.827-23.040c-256.378 0-464.213 207.835-464.213 464.213s207.835 464.213 464.213 464.213c256.378 0 464.213-207.835 464.213-464.213s-207.835-464.213-464.213-464.213zM238.933 454.827h-68.267c-11.311 0-20.48-9.169-20.48-20.48s9.169-20.48 20.48-20.48h68.267c11.311 0 20.48 9.169 20.48 20.48s-9.169 20.48-20.48 20.48zM342.958 637.699l-48.278 48.278c-3.706 3.704-8.825 5.996-14.479 5.996-11.312 0-20.482-9.17-20.482-20.482 0-5.658 2.294-10.779 6.002-14.486l48.306-48.265c3.749-4.011 9.071-6.511 14.977-6.511 11.311 0 20.48 9.169 20.48 20.48 0 5.913-2.506 11.24-6.513 14.979zM341.333 250.027v-68.267c0-22.622 18.338-40.96 40.96-40.96h273.067c22.622 0 40.96 18.338 40.96 40.96v68.267c0 22.622-18.338 40.96-40.96 40.96h-273.067c-22.622 0-40.96-18.338-40.96-40.96zM532.48 789.333c0 11.311-9.169 20.48-20.48 20.48s-20.48-9.169-20.48-20.48v-68.267c0-11.311 9.169-20.48 20.48-20.48s20.48 9.169 20.48 20.48v68.267zM780.029 695.494c-3.706 3.705-8.825 5.996-14.479 5.996s-10.773-2.291-14.479-5.996l-193.099-193.085c-0.939-1.106-1.774-2.351-2.461-3.686-10.554 6.721-23.404 10.783-37.202 10.783-37.997 0-68.799-30.802-68.799-68.799s30.802-68.799 68.799-68.799c37.997 0 68.799 30.802 68.799 68.799 0 10.404-2.31 20.269-6.444 29.11 2.541 0.615 4.562 1.993 6.284 3.677l193.082 193.041c3.705 3.706 5.996 8.825 5.996 14.479s-2.291 10.773-5.996 14.479zM853.333 454.827h-68.267c-11.311 0-20.48-9.169-20.48-20.48s9.169-20.48 20.48-20.48h68.267c11.311 0 20.48 9.169 20.48 20.48s-9.169 20.48-20.48 20.48z" />
<glyph unicode="&#xe936;" glyph-name="ic-telefon" d="M603.022 407.199v79.644h-75.844v-76.641h-75.867v76.709h-75.844v-79.644c-129.558-20.117-227.556-130.871-227.556-264.513 0-0.247 0-0.494 0.001-0.741v-114.991h682.667v114.984c0.001 0.202 0.001 0.441 0.001 0.68 0 133.642-97.998 244.396-226.054 264.321zM413.4 180.304c0.45 41.544 34.232 75.048 75.84 75.048 41.888 0 75.844-33.957 75.844-75.844s-33.954-75.842-75.84-75.844c-41.946 0.271-75.845 34.337-75.845 76.321 0 0.121 0 0.241 0.001 0.361zM754.734 103.663h-134.918c13.276 22.086 21.129 48.741 21.129 77.23 0 83.788-67.923 151.711-151.711 151.711s-151.711-67.923-151.711-151.711c0-28.489 7.853-55.144 21.511-77.918l-135.278 0.688v38.343c-0.001 0.231-0.002 0.504-0.002 0.778 0 104.972 84.749 190.151 189.557 190.847h151.778c104.875-0.696 189.624-85.874 189.624-190.847 0-0.273-0.001-0.547-0.002-0.82v-38.278zM864.711 649.5l-107.292 108.43c-68.372 69.214-163.278 112.081-268.197 112.081s-199.825-42.867-268.16-112.043l-107.284-108.468c-13.741-13.936-22.227-33.084-22.227-54.215s8.486-40.279 22.236-54.224l80.432-81.274c13.658-13.866 32.637-22.456 53.623-22.456s39.966 8.59 53.614 22.447l80.496 81.292c13.741 13.936 22.227 33.084 22.227 54.215s-8.486 40.279-22.236 54.224l-78.612 79.408c50.659 40.032 115.451 64.214 185.89 64.214s135.231-24.182 186.525-64.698l-79.301-78.956c-13.682-13.945-22.128-33.071-22.128-54.17s8.445-40.224 22.139-54.182l80.52-81.293c13.673-13.871 32.667-22.464 53.669-22.464s39.996 8.593 53.66 22.455l80.404 81.292c13.696 13.948 22.15 33.083 22.15 54.192s-8.454 40.245-22.161 54.204zM167.435 595.319l80.441 81.328 80.486-81.374-80.486-81.283zM730.635 513.991l-80.509 81.328 80.486 81.328 80.441-81.328z" />
<glyph unicode="&#xe937;" glyph-name="ic-web" d="M512 846.222c-219.932 0-398.222-178.29-398.222-398.222s178.29-398.222 398.222-398.222c219.932 0 398.222 178.29 398.222 398.222s-178.29 398.222-398.222 398.222zM835.698 484.204h-143.36c-1.606 97.617-24.82 189.437-65.045 271.396 113.575-47.69 194.2-148.638 208.262-269.88zM188.302 411.796h143.36c1.574-97.606 24.757-189.431 64.953-271.398-113.54 47.714-194.131 148.657-208.171 269.884zM331.662 484.204h-143.36c14.194 122.762 94.824 223.714 204.523 266.862-36.299-77.434-59.473-169.257-61.043-266.332zM574.077 196.392c-10.154-24.155-23.975-44.821-41.006-62.352-5.236-6.147-12.568-10.455-20.891-11.826-8.72 1.374-16.044 5.682-21.279 11.825-17.021 17.535-30.842 38.201-40.511 61.050-27.577 64.809-44.19 138.552-46.19 215.93l215.57 0.778c-2.022-78.155-18.626-151.897-47.177-219.353zM404.207 484.204c2.015 78.163 18.62 151.913 47.177 219.374 8.677 20.205 22.497 40.87 39.523 58.406 5.236 6.14 12.569 10.442 20.891 11.803 8.728-1.367 16.062-5.676 21.301-11.825 17.026-17.533 30.848-38.199 40.512-61.051 27.562-64.817 44.168-138.567 46.166-215.952l-215.57-0.778zM628.964 144.168c38.518 78.199 61.693 170.024 63.254 267.102l143.367 0.526c-14.183-122.734-94.763-223.673-204.41-266.861z" />
<glyph unicode="&#xe938;" glyph-name="Untitled-1" d="M696.32 495.787l109.227-109.227v-218.453l95.573-204.8h-218.453v163.84l-122.88 122.88 54.613 54.613 81.92-68.267v259.413zM126.525 790.412c75.545 87.346 186.529 142.282 310.344 142.282 123.18 0 233.66-54.374 308.747-140.431 2.272-3.299-49.296-50.717-49.296-50.717-58.164 75.128-148.372 123.028-249.768 123.028-3.392 0-6.771-0.054-10.137-0.16-103.728-0.337-196.778-47.859-258.47-122.307zM231.97 704.273c50.598 56.496 123.769 91.882 205.204 91.882 81.010 0 153.841-35.017 204.183-90.741 1.429-2.097-54.263-45.787-54.263-45.787-35.758 44.264-68.403 65.14-149.9 65.14-69.359 0-109.076-17.067-150.473-65.154zM587.093 127.147v-68.267h-300.373v477.867h300.373v-204.8h54.613v204.8c0 30.162-24.451 54.613-54.613 54.613h-300.373c-30.162 0-54.613-24.451-54.613-54.613v-477.867c0-30.162 24.451-54.613 54.613-54.613h300.373c30.162 0 54.613 24.451 54.613 54.613v68.267h-54.613zM436.907 413.867c22.622 0 40.96-18.338 40.96-40.96s-18.338-40.96-40.96-40.96c-22.622 0-40.96 18.338-40.96 40.96s18.338 40.96 40.96 40.96zM436.907 250.027c22.622 0 40.96-18.338 40.96-40.96s-18.338-40.96-40.96-40.96c-22.622 0-40.96 18.338-40.96 40.96s18.338 40.96 40.96 40.96z" />
<glyph unicode="&#xe939;" glyph-name="x-inchidere" d="M896.333 732.954l-289.408-290.842 278.17-279.885c15.087-13.253 24.559-32.586 24.559-54.131 0-17.684-6.381-33.878-16.966-46.404-12.223-10.462-28.35-16.896-45.981-16.896-21.459 0-40.691 9.532-53.695 24.592l-278.451 279.976-284.954-286.464c-13.097-15.128-32.329-24.641-53.783-24.641-17.62 0-33.741 6.417-46.154 17.042-10.413 12.336-16.802 28.533-16.802 46.222 0 21.547 9.48 40.88 24.497 54.055l285.035 286.611-295.578 297.344c-15.087 13.253-24.559 32.586-24.559 54.131 0 17.684 6.381 33.878 16.966 46.404 12.223 10.462 28.35 16.896 45.981 16.896 21.459 0 40.691-9.532 53.695-24.592l295.654-297.333 289.28 290.816c13.101 15.122 32.333 24.631 53.785 24.631 17.617 0 33.737-6.413 46.152-17.032 10.543-12.376 17.018-28.671 17.018-46.478 0-21.493-9.432-40.782-24.384-53.955z" />
<glyph unicode="&#xe93a;" glyph-name="ic-adresa" d="M512 12.481c123.039 144.384 307.2 391.714 307.2 578.879-2.123 166.352-137.472 300.389-304.127 300.389-1.080 0-2.159-0.006-3.237-0.017-0.749 0.011-1.828 0.017-2.908 0.017-166.655 0-302.004-134.037-304.125-300.189-0.002-187.365 184.318-434.831 307.198-579.079zM512 791.609c0.613 0.007 1.338 0.010 2.063 0.010 111.1 0 201.33-89.36 202.735-200.127 0.001-125.63-124.813-315.206-204.799-419.745-80.031 104.425-204.8 293.911-204.8 419.612 1.433 110.905 91.672 200.259 202.782 200.259 0.71 0 1.418-0.004 2.126-0.011zM512 691.484c54.31-1.274 97.849-45.602 97.849-100.099 0-55.297-44.827-100.124-100.124-100.124-55.288 0-100.11 44.812-100.124 100.097 0.652 55.441 45.746 100.132 101.278 100.132 0.394 0 0.788-0.002 1.182-0.007z" />
<glyph unicode="&#xe93b;" glyph-name="ic-apel-direct" d="M611.442 291.191c-11.681 0.25-22.446 3.967-31.363 10.159-93.084 54.685-169.169 129.387-224.004 218.558-11.456 15.116-17.424 30.95-17.424 48.177 0 2.306 0.107 4.587 0.316 6.838 6.373 34.345 50.245 48.022 63.057 80.835 11.878 28.262-3.664 60.143-21.936 84.764-30.534 41.325-67.864 75.668-110.651 101.999-21.119 14.168-44.381 23.236-69.486 26.377-111.384 5.54-117.779-178.553-103.17-250.551 19.503-78.988 52.981-148.183 97.983-208.245 102.22-148.084 243.919-274.764 415.769-334.907 37.534-15.554 81.124-24.586 126.824-24.586 21.41 0 42.357 1.982 62.668 5.774 30.402 6.369 58.47 22.182 80.136 44.294 18.207 18.443 29.436 43.759 29.436 71.698 0 5.222-0.392 10.352-1.149 15.363-8.47 31.548-25.775 58.849-49.115 79.478-31.697 32.303-66.402 61.118-103.848 86.156-8.779 6.274-16.438 9.779-24.757 11.462-9.965-0.002-18.837-3.069-26.101-8.246-23.483-13.191-43.878-28.279-62.182-45.559-7.099-8.476-16.756-14.853-27.782-17.967-1.089-0.983-2.065-1.619-3.188-1.865z" />
<glyph unicode="&#xe93c;" glyph-name="ic-asistenta-off" d="M819.2-36.693h-628.053c-30.162 0-54.613 24.451-54.613 54.613v791.893c0 30.162 24.451 54.613 54.613 54.613h122.88v40.96c0 15.081 12.226 27.307 27.307 27.307s27.307-12.226 27.307-27.307v-40.96h109.227v40.96c0 15.081 12.226 27.307 27.307 27.307s27.307-12.226 27.307-27.307v-40.96h109.227v40.96c0 15.081 12.226 27.307 27.307 27.307s27.307-12.226 27.307-27.307v-40.96h122.88c30.162 0 54.613-24.451 54.613-54.613v-791.893c0-30.162-24.451-54.613-54.613-54.613zM819.2 782.507c0 15.081-12.226 27.307-27.307 27.307h-95.573v-68.267c0-15.081-12.226-27.307-27.307-27.307s-27.307 12.226-27.307 27.307v68.267h-109.227v-68.267c0-15.081-12.226-27.307-27.307-27.307s-27.307 12.226-27.307 27.307v68.267h-109.227v-68.267c0-15.081-12.226-27.307-27.307-27.307s-27.307 12.226-27.307 27.307v68.267h-95.573c-15.081 0-27.307-12.226-27.307-27.307v-737.28c0-15.081 12.226-27.307 27.307-27.307h573.44c15.081 0 27.307 12.226 27.307 27.307v737.28zM314.027 222.72h382.293v-54.613h-382.293v54.613zM314.027 386.56h382.293v-54.613h-382.293v54.613zM314.027 550.4h314.027v-54.613h-314.027v54.613z" />
</font>
</defs>
</svg>
